<?xml version="1.0" encoding="UTF-8" standalone="no"?>
<!-- Created with Inkscape (http://www.inkscape.org/) -->

<svg
   width="88.590439mm"
   height="61.068478mm"
   viewBox="0 0 88.590439 61.068479"
   version="1.1"
   id="svg5"
   inkscape:version="1.1 (c68e22c387, 2021-05-23)"
   sodipodi:docname="Roof0D.svg"
   inkscape:export-filename="C:\Users\user pc\Desktop\bitmap.png"
   inkscape:export-xdpi="96"
   inkscape:export-ydpi="96"
   xmlns:inkscape="http://www.inkscape.org/namespaces/inkscape"
   xmlns:sodipodi="http://sodipodi.sourceforge.net/DTD/sodipodi-0.dtd"
   xmlns="http://www.w3.org/2000/svg"
   xmlns:svg="http://www.w3.org/2000/svg">
  <sodipodi:namedview
     id="namedview7"
     pagecolor="#ffffff"
     bordercolor="#666666"
     borderopacity="1.0"
     inkscape:pageshadow="2"
     inkscape:pageopacity="0.0"
     inkscape:pagecheckerboard="0"
     inkscape:document-units="mm"
     showgrid="false"
     fit-margin-top="0"
     fit-margin-left="0"
     fit-margin-right="0"
     fit-margin-bottom="0"
     inkscape:zoom="0.74118967"
     inkscape:cx="-157.17974"
     inkscape:cy="-12.817232"
     inkscape:window-width="1920"
     inkscape:window-height="1017"
     inkscape:window-x="-8"
     inkscape:window-y="-7"
     inkscape:window-maximized="1"
     inkscape:current-layer="g69496" />
  <defs
     id="defs2">
    <marker
       style="overflow:visible"
       id="Arrow1Lstart"
       refX="0"
       refY="0"
       orient="auto"
       inkscape:stockid="Arrow1Lstart"
       inkscape:isstock="true">
      <path
         transform="matrix(0.8,0,0,0.8,10,0)"
         style="fill:context-stroke;fill-rule:evenodd;stroke:context-stroke;stroke-width:1pt"
         d="M 0,0 5,-5 -12.5,0 5,5 Z"
         id="path79633" />
    </marker>
    <linearGradient
       id="gradient1"
       gradientUnits="userSpaceOnUse"
       x1="7.1230001"
       x2="87.694801">
      <stop
         offset="0.8358"
         stop-color="#F0D48E"
         id="stop1616" />
      <stop
         offset="1"
         stop-color="#D7C087"
         id="stop1618" />
    </linearGradient>
    <linearGradient
       id="gradient2"
       gradientUnits="objectBoundingBox"
       y1="0.48649999"
       x2="0.29980001"
       y2="0.23199999">
      <stop
         offset="0"
         stop-color="#A3A3A3"
         id="stop1621" />
      <stop
         offset="0.7394"
         stop-color="gray"
         id="stop1623" />
    </linearGradient>
    <linearGradient
       id="gradient1-8"
       gradientUnits="userSpaceOnUse"
       x1="7.1230001"
       x2="87.694801">
      <stop
         offset="0.8358"
         stop-color="#F0D48E"
         id="stop1770" />
      <stop
         offset="1"
         stop-color="#D7C087"
         id="stop1772" />
    </linearGradient>
    <linearGradient
       id="gradient1-1"
       gradientUnits="userSpaceOnUse"
       x1="7.1230001"
       x2="87.694801">
      <stop
         offset="0.8358"
         stop-color="#F0D48E"
         id="stop38943" />
      <stop
         offset="1"
         stop-color="#D7C087"
         id="stop38945" />
    </linearGradient>
    <linearGradient
       id="gradient2-5"
       gradientUnits="objectBoundingBox"
       y1="0.48649999"
       x2="0.29980001"
       y2="0.23199999">
      <stop
         offset="0"
         stop-color="#A3A3A3"
         id="stop38948" />
      <stop
         offset="0.7394"
         stop-color="gray"
         id="stop38950" />
    </linearGradient>
    <linearGradient
       id="gradient1-89"
       gradientUnits="userSpaceOnUse"
       x1="7.1230001"
       x2="87.694801">
      <stop
         offset="0.8358"
         stop-color="#F0D48E"
         id="stop39017" />
      <stop
         offset="1"
         stop-color="#D7C087"
         id="stop39019" />
    </linearGradient>
    <linearGradient
       id="gradient2-4"
       gradientUnits="userSpaceOnUse"
       y1="239.27136"
       x2="59.035851"
       y2="211.25114"
       gradientTransform="scale(1.2344333,0.81008833)"
       x1="26.028137">
      <stop
         offset="0"
         stop-color="#A3A3A3"
         id="stop39022" />
      <stop
         offset="0.7394"
         stop-color="gray"
         id="stop39024" />
    </linearGradient>
    <linearGradient
       id="gradient1-18"
       gradientUnits="userSpaceOnUse"
       x1="7.1230001"
       x2="87.694801">
      <stop
         offset="0.8358"
         stop-color="#F0D48E"
         id="stop39099" />
      <stop
         offset="1"
         stop-color="#D7C087"
         id="stop39101" />
    </linearGradient>
    <linearGradient
       id="gradient1-6"
       gradientUnits="userSpaceOnUse"
       x1="7.1230001"
       x2="87.694801">
      <stop
         offset="0.8358"
         stop-color="#F0D48E"
         id="stop1616-2" />
      <stop
         offset="1"
         stop-color="#D7C087"
         id="stop1618-9" />
    </linearGradient>
    <linearGradient
       id="gradient2-0"
       gradientUnits="objectBoundingBox"
       y1="0.48649999"
       x2="0.29980001"
       y2="0.23199999">
      <stop
         offset="0"
         stop-color="#A3A3A3"
         id="stop1621-3" />
      <stop
         offset="0.7394"
         stop-color="gray"
         id="stop1623-9" />
    </linearGradient>
    <linearGradient
       id="gradient1-8-7"
       gradientUnits="userSpaceOnUse"
       x1="7.1230001"
       x2="87.694801">
      <stop
         offset="0.8358"
         stop-color="#F0D48E"
         id="stop1770-6" />
      <stop
         offset="1"
         stop-color="#D7C087"
         id="stop1772-9" />
    </linearGradient>
    <linearGradient
       id="gradient1-1-2"
       gradientUnits="userSpaceOnUse"
       x1="7.1230001"
       x2="87.694801">
      <stop
         offset="0.8358"
         stop-color="#F0D48E"
         id="stop38943-0" />
      <stop
         offset="1"
         stop-color="#D7C087"
         id="stop38945-2" />
    </linearGradient>
    <linearGradient
       id="gradient2-5-1"
       gradientUnits="objectBoundingBox"
       y1="0.48649999"
       x2="0.29980001"
       y2="0.23199999">
      <stop
         offset="0"
         stop-color="#A3A3A3"
         id="stop38948-1" />
      <stop
         offset="0.7394"
         stop-color="gray"
         id="stop38950-5" />
    </linearGradient>
    <linearGradient
       id="gradient1-89-4"
       gradientUnits="userSpaceOnUse"
       x1="7.1230001"
       x2="87.694801">
      <stop
         offset="0.8358"
         stop-color="#F0D48E"
         id="stop39017-5" />
      <stop
         offset="1"
         stop-color="#D7C087"
         id="stop39019-1" />
    </linearGradient>
    <linearGradient
       id="gradient1-18-7"
       gradientUnits="userSpaceOnUse"
       x1="7.1230001"
       x2="87.694801">
      <stop
         offset="0.8358"
         stop-color="#F0D48E"
         id="stop39099-8" />
      <stop
         offset="1"
         stop-color="#D7C087"
         id="stop39101-3" />
    </linearGradient>
    <linearGradient
       id="gradient1-7"
       gradientUnits="userSpaceOnUse"
       x1="7.1230001"
       x2="87.694801">
      <stop
         offset="0.8358"
         stop-color="#F0D48E"
         id="stop70456" />
      <stop
         offset="1"
         stop-color="#D7C087"
         id="stop70458" />
    </linearGradient>
    <linearGradient
       id="gradient2-7"
       gradientUnits="objectBoundingBox"
       y1="0.48649999"
       x2="0.29980001"
       y2="0.23199999">
      <stop
         offset="0"
         stop-color="#A3A3A3"
         id="stop70461" />
      <stop
         offset="0.7394"
         stop-color="gray"
         id="stop70463" />
    </linearGradient>
    <linearGradient
       id="gradient1-187"
       gradientUnits="userSpaceOnUse"
       x1="7.1230001"
       x2="87.694801">
      <stop
         offset="0.8358"
         stop-color="#F0D48E"
         id="stop70610" />
      <stop
         offset="1"
         stop-color="#D7C087"
         id="stop70612" />
    </linearGradient>
    <linearGradient
       id="gradient1-0"
       gradientUnits="userSpaceOnUse"
       x1="7.1230001"
       x2="87.694801">
      <stop
         offset="0.8358"
         stop-color="#F0D48E"
         id="stop1616-4" />
      <stop
         offset="1"
         stop-color="#D7C087"
         id="stop1618-8" />
    </linearGradient>
    <linearGradient
       id="gradient2-6"
       gradientUnits="objectBoundingBox"
       y1="0.48649999"
       x2="0.29980001"
       y2="0.23199999">
      <stop
         offset="0"
         stop-color="#A3A3A3"
         id="stop1621-1" />
      <stop
         offset="0.7394"
         stop-color="gray"
         id="stop1623-95" />
    </linearGradient>
    <linearGradient
       id="gradient1-8-9"
       gradientUnits="userSpaceOnUse"
       x1="7.1230001"
       x2="87.694801">
      <stop
         offset="0.8358"
         stop-color="#F0D48E"
         id="stop1770-0" />
      <stop
         offset="1"
         stop-color="#D7C087"
         id="stop1772-5" />
    </linearGradient>
    <linearGradient
       id="gradient1-1-24"
       gradientUnits="userSpaceOnUse"
       x1="7.1230001"
       x2="87.694801">
      <stop
         offset="0.8358"
         stop-color="#F0D48E"
         id="stop38943-2" />
      <stop
         offset="1"
         stop-color="#D7C087"
         id="stop38945-4" />
    </linearGradient>
    <linearGradient
       id="gradient2-5-4"
       gradientUnits="objectBoundingBox"
       y1="0.48649999"
       x2="0.29980001"
       y2="0.23199999">
      <stop
         offset="0"
         stop-color="#A3A3A3"
         id="stop38948-4" />
      <stop
         offset="0.7394"
         stop-color="gray"
         id="stop38950-7" />
    </linearGradient>
    <linearGradient
       id="gradient1-89-3"
       gradientUnits="userSpaceOnUse"
       x1="7.1230001"
       x2="87.694801">
      <stop
         offset="0.8358"
         stop-color="#F0D48E"
         id="stop39017-1" />
      <stop
         offset="1"
         stop-color="#D7C087"
         id="stop39019-3" />
    </linearGradient>
    <linearGradient
       id="gradient1-18-3"
       gradientUnits="userSpaceOnUse"
       x1="7.1230001"
       x2="87.694801">
      <stop
         offset="0.8358"
         stop-color="#F0D48E"
         id="stop39099-9" />
      <stop
         offset="1"
         stop-color="#D7C087"
         id="stop39101-9" />
    </linearGradient>
    <linearGradient
       id="gradient1-67"
       gradientUnits="userSpaceOnUse"
       x1="7.1230001"
       x2="87.694801">
      <stop
         offset="0.8358"
         stop-color="#F0D48E"
         id="stop80562" />
      <stop
         offset="1"
         stop-color="#D7C087"
         id="stop80564" />
    </linearGradient>
  </defs>
  <g
     inkscape:label="Layer 1"
     inkscape:groupmode="layer"
     id="layer1"
     transform="translate(579.16529,798.85151)">
    <g
       id="g69496"
       transform="translate(-465.55027,-463.82827)">
      <g
         id="g80602"
         transform="matrix(0.26458333,0,0,0.26458333,-115.5015,-350.23149)">
        <path
           fill="#cecece"
           d="M 338.34,153.88 163.31,261.46 9.68,162.55 175.84,68.15 Z"
           id="path80574" />
        <path
           fill="#d3bd94"
           d="M 15.13,154.26 176.5,61.11 v 9.92 L 15.13,164.18 Z m 241.97,-36.71 4.3,-2.49 v -9.92 l -4.3,2.49 z m -165.67,94.11 4.3,-2.49 v -7.38 l -4.3,2.48 z"
           id="path80576"
           style="fill:#025f5f;fill-opacity:1" />
        <path
           fill="#f4daab"
           d="m 176.5,61.11 80.6,46.53 v 9.92 L 176.5,71.03 v -9.92 m 84.9,44.04 v 9.92 l 72.55,41.88 v -9.92 L 261.4,105.15"
           id="path80578"
           style="fill:#237b6c;fill-opacity:1" />
        <path
           fill="#d7c087"
           d="m 341.96,148.03 v 37.5 L 163.98,288.29 147.43,256.72 Z"
           id="path80580"
           style="fill:#025f5f;fill-opacity:1" />
        <path
           fill="url(#gradient1)"
           d="m 87.73,199.22 v 36.92 L 7.24,189.68 v -34.33 z"
           id="path80582"
           style="fill:#025f5f;fill-opacity:1" />
        <path
           fill="#f8dc94"
           d="m 83.42,204.29 80.55,43.43 v 40.57 l -80.55,-46.5 z"
           id="path80584"
           style="fill:#237b6c;fill-opacity:1" />
        <path
           fill="#747474"
           d="m 261.4,101.53 -4.3,2.48 -80.6,-46.53 -169.37,97.78 80.6,46.53 -4.31,2.49 80.55,46.51 177.98,-102.76 z m -169.98,102.75 4.31,-2.49 -80.6,-46.53 161.37,-93.15 80.6,46.53 4.3,-2.49 72.55,41.88 -169.98,98.14 z"
           id="path80586" />
        <path
           fill="url(#gradient2)"
           d="m 109.79,205.97 v -10.62 l 19.42,21.83 z M 70.96,183.51 v -10.62 l 19.41,21.83 z M 32.13,161.06 v -10.62 l 19.41,21.83 z m 116.5,67.36 V 217.8 l 19.41,21.83 z"
           id="path80588"
           style="fill:url(#gradient2-4)" />
        <path
           fill="#777777"
           d="m 110.17,196.33 17.21,19.36 -17.21,-9.94 v -9.42 m -0.75,-1.97 v 11.82 l 21.61,12.48 z M 71.34,173.88 88.55,193.24 71.34,183.3 v -9.42 m -0.75,-1.97 v 11.82 L 92.2,196.21 Z M 32.5,151.43 49.71,170.79 32.5,160.85 v -9.42 m -0.75,-1.97 v 11.82 l 21.61,12.48 z M 149,218.79 166.21,238.15 149,228.2 v -9.41 m -0.75,-1.97 v 11.82 l 21.61,12.48 z"
           id="path80590" />
        <path
           fill="#006eb5"
           d="M 313.67,157.14 169,240.69 145.08,213.93 289.76,130.38 Z M 274.84,134.69 130.16,218.24 106.24,191.48 250.92,107.93 Z M 236.01,112.23 91.33,195.78 67.41,169.02 212.09,85.47 Z M 197.17,89.78 52.5,173.33 28.58,146.57 173.26,63.02 Z"
           id="path80592" />
        <path
           fill="#747474"
           d="m 168.08,242.6 -0.07,-1.05 146.1,-84.37 -0.83,1.57 z m -38.83,-22.45 -0.07,-1.05 146.1,-84.37 -0.83,1.57 z m -38.84,-22.45 -0.07,-1.05 146.1,-84.37 -0.83,1.57 z m -38.83,-22.46 -0.07,-1.05 146.1,-84.37 -0.83,1.57 z"
           id="path80594" />
        <path
           fill="#b4b4b4"
           d="m 143.82,215.45 0.83,-1.57 24.26,27.15 -0.83,1.57 z M 104.98,193 l 0.83,-1.57 24.26,27.15 -0.83,1.57 z m -38.83,-22.46 0.83,-1.57 24.26,27.15 -0.83,1.57 z m -38.83,-22.45 0.83,-1.57 24.26,27.15 -0.83,1.57 z"
           id="path80596" />
        <path
           fill="#243b6b"
           d="m 312.86,157.61 0.81,-0.47 -23.91,-26.76 -8.57,4.95 -0.04,-0.05 -0.84,0.52 0.02,0.02 -7.66,4.42 -0.02,-0.03 -0.36,0.25 -8.11,4.69 -0.01,-0.01 -0.24,0.15 -8.25,4.76 -0.03,-0.03 -0.4,0.28 -16.59,9.58 -0.01,-0.02 -0.31,0.2 -8.17,4.72 -0.02,-0.02 -0.77,0.48 -24.72,14.28 -0.08,-0.08 -0.81,0.56 0.02,0.02 -7.64,4.41 -0.03,-0.03 -0.42,0.29 -8.05,4.65 -0.05,-0.05 -0.82,0.54 0.01,0.01 -7.64,4.41 -0.03,-0.03 -0.32,0.23 -16.67,9.63 -0.03,-0.03 -0.43,0.3 -8.04,4.64 -0.01,-0.02 -0.31,0.2 -8.23,4.75 0.63,0.71 7.67,-4.43 4.08,4.55 -7.64,4.41 0.7,0.78 7.64,-4.41 4.09,4.57 -7.62,4.4 0.7,0.78 7.62,-4.4 4.09,4.57 -7.6,4.39 0.7,0.78 7.6,-4.39 4.09,4.57 -7.58,4.38 0.7,0.78 7.58,-4.38 4.02,4.49 0.88,-0.51 -4.02,-4.49 7.63,-4.41 4.19,4.68 0.86,-0.5 -4.19,-4.68 7.64,-4.41 4.09,4.56 0.86,-0.5 -4.09,-4.56 7.66,-4.42 4.2,4.68 0.86,-0.5 -4.2,-4.68 7.64,-4.41 4.09,4.56 0.86,-0.5 -4.09,-4.57 7.63,-4.41 4.26,4.75 0.86,-0.5 -4.26,-4.76 7.64,-4.41 4.15,4.64 0.86,-0.5 -4.15,-4.64 7.66,-4.42 4.26,4.76 0.86,-0.5 -4.26,-4.76 7.64,-4.41 4.16,4.64 0.86,-0.5 -4.16,-4.64 7.63,-4.41 4.33,4.83 0.86,-0.5 -4.33,-4.83 7.64,-4.41 4.22,4.71 0.86,-0.5 -4.22,-4.71 7.66,-4.42 4.33,4.83 0.86,-0.5 -4.33,-4.84 7.64,-4.41 4.23,4.72 0.86,-0.5 -4.23,-4.72 7.63,-4.41 4.4,4.91 0.86,-0.5 -4.4,-4.91 7.64,-4.41 4.29,4.79 0.86,-0.5 -4.29,-4.79 7.66,-4.42 4.4,4.91 0.86,-0.5 -4.4,-4.91 7.72,-4.46 z m -129.16,43.18 4.09,4.57 -7.66,4.42 -4.09,-4.57 z m -8.36,3.64 -4.08,-4.55 7.66,-4.42 4.08,4.54 z m 84.89,-47.84 4.09,4.57 -7.64,4.41 -4.09,-4.57 z m -8.34,3.63 -4.08,-4.55 7.64,-4.41 4.08,4.55 z m 37.94,-13.79 -7.66,4.42 -4.09,-4.57 7.66,-4.42 z m -3.23,-5.07 7.75,-4.47 4.08,4.57 -7.74,4.47 z m -5.29,9.99 -7.64,4.41 -4.09,-4.57 7.64,-4.41 z m -8.5,4.9 -7.63,4.41 -4.09,-4.57 7.63,-4.41 z m -16.99,9.82 -7.66,4.42 -4.09,-4.57 7.66,-4.42 z m -8.53,4.92 -7.64,4.41 -4.09,-4.57 7.64,-4.41 z m -8.49,4.91 -7.63,4.41 -4.09,-4.57 7.63,-4.41 z m -12.43,-0.94 -4.08,-4.55 7.63,-4.41 4.08,4.55 z m -0.86,0.5 -7.64,4.41 -4.08,-4.55 7.64,-4.41 z m 0.7,0.78 4.09,4.57 -7.64,4.41 -4.09,-4.57 z m -4.41,9.47 -7.66,4.42 -4.09,-4.56 7.66,-4.42 z m -8.52,4.92 -7.64,4.41 -4.09,-4.57 7.64,-4.41 z m -8.5,4.91 -7.63,4.41 -4.09,-4.57 7.63,-4.41 z m -8.49,4.9 -7.64,4.41 -4.09,-4.57 7.64,-4.41 z m -17.02,9.83 -7.64,4.41 -4.09,-4.57 7.64,-4.41 z m 0.7,0.78 4.09,4.57 -7.64,4.41 -4.09,-4.57 z m 0.86,-0.5 7.66,-4.42 4.09,4.57 -7.66,4.42 z m 8.52,-4.92 7.64,-4.41 4.09,4.57 -7.64,4.41 z m 8.5,-4.9 7.63,-4.41 4.09,4.56 -7.63,4.41 z m 8.49,-4.91 7.64,-4.41 4.09,4.56 -7.64,4.41 z m 8.5,-4.91 7.66,-4.42 4.09,4.57 -7.66,4.42 z m 8.52,-4.92 7.64,-4.41 4.09,4.56 -7.64,4.41 z m 8.5,-4.91 7.63,-4.41 4.09,4.57 -7.63,4.41 z m 8.49,-4.9 7.64,-4.41 4.09,4.56 -7.64,4.41 z m 8.5,-4.91 7.66,-4.42 4.09,4.57 -7.66,4.42 z m 8.52,-4.92 7.64,-4.41 4.09,4.57 -7.64,4.41 z m 8.5,-4.91 7.63,-4.41 4.09,4.57 -7.63,4.41 z m 8.5,-4.9 7.64,-4.41 4.09,4.56 -7.64,4.41 z m 8.5,-4.91 7.66,-4.42 4.09,4.57 -7.66,4.42 z m 8.52,-4.92 7.74,-4.47 4.08,4.57 -7.73,4.46 z m -1.81,-15.16 4.07,4.55 -7.75,4.47 -4.08,-4.55 z m -8.62,4.98 4.08,4.55 -7.66,4.42 -4.08,-4.55 z m -8.52,4.92 4.08,4.55 -7.64,4.41 -4.08,-4.55 z m -8.5,4.91 4.08,4.55 -7.63,4.41 -4.08,-4.55 z m -16.99,9.81 4.08,4.55 -7.66,4.42 -4.08,-4.55 z m -8.52,4.92 4.08,4.55 -7.64,4.41 -4.08,-4.55 z m -25.49,14.72 4.08,4.55 -7.66,4.42 -4.08,-4.55 z m -8.53,4.92 4.08,4.55 -7.64,4.41 -4.08,-4.55 z m -8.49,4.91 4.08,4.55 -7.63,4.41 -4.08,-4.55 z m -8.5,4.91 4.08,4.55 -7.64,4.41 -4.08,-4.55 z m -17.02,9.83 4.08,4.55 -7.64,4.41 -4.08,-4.55 z m -16.13,9.31 7.63,-4.41 4.08,4.55 -7.63,4.41 z m 4.77,5.33 7.63,-4.41 4.09,4.56 -7.63,4.41 z m 4.79,5.35 7.63,-4.41 4.09,4.57 -7.63,4.41 z m 8.88,9.91 -4.09,-4.56 7.63,-4.41 4.09,4.57 z m 8.5,-4.9 -4.09,-4.57 7.64,-4.41 4.09,4.57 z m 8.5,-4.91 -4.09,-4.57 7.66,-4.42 4.09,4.57 z m 8.52,-4.93 -4.09,-4.56 7.64,-4.41 4.09,4.57 z m 8.5,-4.9 -4.09,-4.57 7.63,-4.41 4.09,4.57 z m 8.49,-4.91 -4.09,-4.57 7.64,-4.41 4.09,4.57 z m 8.5,-4.91 -4.09,-4.57 7.66,-4.42 4.09,4.57 z m 8.52,-4.92 -4.09,-4.57 7.64,-4.41 4.09,4.57 z m 8.5,-4.9 -4.09,-4.57 7.63,-4.41 4.09,4.56 z m 8.49,-4.91 -4.09,-4.57 7.64,-4.41 4.09,4.57 z m 8.5,-4.91 -4.09,-4.57 7.66,-4.42 4.09,4.57 z m 8.52,-4.92 -4.09,-4.57 7.64,-4.41 4.09,4.56 z m 8.5,-4.91 -4.09,-4.57 7.63,-4.41 4.09,4.56 z m 8.5,-4.9 -4.09,-4.56 7.64,-4.41 4.09,4.57 z m 8.5,-4.91 -4.09,-4.56 7.66,-4.42 4.09,4.57 z m 8.52,-4.92 -4.09,-4.57 7.73,-4.46 4.08,4.57 z m -158.06,47.58 4.19,4.68 0.86,-0.5 -4.19,-4.68 7.64,-4.41 4.09,4.56 0.86,-0.5 -4.09,-4.56 7.66,-4.42 4.2,4.68 0.86,-0.5 -4.2,-4.68 7.64,-4.41 4.09,4.56 0.86,-0.5 -4.09,-4.57 7.63,-4.41 4.26,4.75 0.86,-0.5 -4.26,-4.75 7.64,-4.41 4.15,4.64 0.86,-0.5 -4.15,-4.64 7.66,-4.42 4.26,4.76 0.86,-0.5 -4.26,-4.76 7.64,-4.41 4.16,4.64 0.86,-0.5 -4.16,-4.64 7.63,-4.41 4.33,4.83 0.86,-0.5 -4.33,-4.83 7.64,-4.41 4.22,4.71 0.86,-0.5 -4.22,-4.71 7.66,-4.42 4.33,4.83 0.86,-0.5 -4.33,-4.84 7.64,-4.41 4.22,4.72 0.86,-0.5 -4.23,-4.72 7.63,-4.41 4.4,4.91 0.86,-0.5 -4.4,-4.91 7.64,-4.41 4.29,4.79 0.86,-0.5 -4.29,-4.79 7.66,-4.42 4.4,4.91 0.86,-0.5 -4.4,-4.91 7.72,-4.46 4.17,4.67 0.81,-0.47 -23.91,-26.76 -8.57,4.95 -0.04,-0.05 -0.84,0.52 0.02,0.02 -7.66,4.42 -0.02,-0.03 -0.37,0.25 -8.11,4.68 -0.01,-0.01 -0.23,0.15 -8.25,4.76 -0.03,-0.03 -0.4,0.28 -8.89,5.21 -0.02,0.01 -7.66,4.42 -0.01,-0.02 -0.31,0.2 -8.17,4.72 -0.02,-0.02 -0.76,0.48 -24.73,14.28 -0.08,-0.08 -0.81,0.56 0.02,0.02 -7.64,4.41 -0.03,-0.03 -0.42,0.29 -8.05,4.65 -0.05,-0.05 -0.82,0.54 0.01,0.01 -7.64,4.41 -0.03,-0.03 -0.32,0.23 -16.67,9.63 -0.03,-0.03 -0.43,0.3 -8.04,4.64 -0.01,-0.02 -0.31,0.2 -8.23,4.75 0.63,0.71 7.67,-4.43 4.08,4.55 -7.64,4.41 0.7,0.78 7.64,-4.41 4.09,4.57 -7.62,4.4 0.7,0.78 7.62,-4.4 4.09,4.57 -7.6,4.39 0.7,0.78 7.6,-4.39 4.09,4.56 -7.58,4.38 0.7,0.78 7.58,-4.38 4.02,4.49 0.88,-0.51 -4.02,-4.49 z m 0.16,-1.28 -4.09,-4.56 7.64,-4.41 4.09,4.57 z m 2.5,-24.59 4.09,4.57 -7.66,4.42 -4.09,-4.57 z m -8.37,3.65 -4.08,-4.55 7.66,-4.42 4.08,4.55 z m 84.89,-47.84 4.09,4.57 -7.64,4.41 -4.09,-4.57 z m -8.34,3.63 -4.08,-4.55 7.64,-4.41 4.08,4.55 z m -62.54,45.41 7.64,-4.41 4.09,4.57 -7.64,4.41 z m 3.24,5.06 -7.66,4.42 -4.09,-4.57 7.66,-4.42 z m 5.26,-9.97 7.63,-4.41 4.09,4.57 -7.63,4.41 z m 8.5,-4.9 7.64,-4.41 4.09,4.56 -7.64,4.41 z m 8.5,-4.91 7.66,-4.42 4.09,4.57 -7.66,4.42 z m 8.52,-4.92 7.64,-4.41 4.09,4.57 -7.64,4.41 z m 8.5,-4.91 7.63,-4.41 4.09,4.57 -7.63,4.41 z m 8.49,-4.9 7.64,-4.41 4.09,4.56 -7.64,4.41 z m 8.5,-4.91 7.66,-4.42 4.09,4.56 -7.66,4.42 z m 8.52,-4.92 7.64,-4.41 4.09,4.56 -7.64,4.41 z m 8.5,-4.91 7.63,-4.41 4.09,4.57 -7.63,4.41 z m 8.49,-4.91 7.64,-4.41 4.09,4.57 -7.64,4.41 z m 8.5,-4.9 7.66,-4.42 4.09,4.56 -7.66,4.42 z m 8.53,-4.93 7.74,-4.47 4.08,4.57 -7.73,4.46 z m -0.7,-0.77 -4.09,-4.57 7.75,-4.47 4.08,4.57 z m -0.86,0.49 -7.66,4.42 -4.09,-4.57 7.66,-4.42 z m -8.52,4.92 -7.64,4.41 -4.09,-4.57 7.64,-4.41 z m -8.5,4.91 -7.63,4.41 -4.09,-4.57 7.63,-4.41 z m -17,9.81 -7.66,4.42 -4.09,-4.57 7.66,-4.42 z m -8.52,4.93 -7.64,4.41 -4.09,-4.57 7.64,-4.41 z m -8.5,4.9 -7.63,4.41 -4.09,-4.57 7.63,-4.41 z m -12.42,-0.94 -4.08,-4.55 7.63,-4.41 4.08,4.55 z m -0.86,0.5 -7.64,4.41 -4.08,-4.55 7.64,-4.41 z m 0.7,0.78 4.09,4.57 -7.64,4.41 -4.09,-4.57 z m -4.41,9.48 -7.66,4.42 -4.09,-4.57 7.66,-4.42 z m -8.52,4.92 -7.64,4.41 -4.09,-4.57 7.64,-4.41 z m -8.5,4.9 -7.63,4.41 -4.09,-4.57 7.63,-4.41 z m -8.49,4.91 -7.64,4.41 -4.09,-4.57 7.64,-4.41 z m -17.03,9.83 -7.64,4.41 -4.09,-4.57 7.64,-4.41 z m 0.7,0.78 4.09,4.57 -7.64,4.41 -4.09,-4.57 z m 9.74,9.41 -4.09,-4.57 7.66,-4.42 4.09,4.57 z m 8.52,-4.92 -4.09,-4.57 7.64,-4.41 4.09,4.57 z m 8.5,-4.91 -4.09,-4.57 7.63,-4.41 4.09,4.56 z m 8.5,-4.9 -4.09,-4.56 7.64,-4.41 4.09,4.57 z m 8.5,-4.91 -4.09,-4.56 7.66,-4.42 4.09,4.57 z m 8.52,-4.92 -4.09,-4.57 7.64,-4.41 4.09,4.57 z m 8.5,-4.91 -4.09,-4.56 7.63,-4.41 4.09,4.56 z m 8.49,-4.9 -4.09,-4.57 7.64,-4.41 4.09,4.57 z m 8.5,-4.91 -4.09,-4.57 7.66,-4.42 4.09,4.57 z m 8.52,-4.92 -4.09,-4.57 7.64,-4.41 4.09,4.57 z m 8.5,-4.91 -4.09,-4.57 7.63,-4.41 4.09,4.56 z m 8.49,-4.9 -4.09,-4.56 7.64,-4.41 4.09,4.56 z m 8.5,-4.91 -4.09,-4.57 7.66,-4.42 4.09,4.57 z m 8.53,-4.92 -4.09,-4.57 7.73,-4.46 4.08,4.57 z m -10.7,-25.07 4.07,4.55 -7.75,4.47 -4.08,-4.55 z m -8.61,4.98 4.08,4.55 -7.66,4.42 -4.08,-4.55 z m -8.52,4.92 4.08,4.55 -7.64,4.41 -4.08,-4.55 z m -8.5,4.91 4.08,4.55 -7.63,4.41 -4.08,-4.55 z m -16.99,9.81 4.08,4.55 -7.66,4.42 -4.08,-4.55 z m -8.53,4.92 4.08,4.55 -7.64,4.41 -4.08,-4.55 z m -25.49,14.72 4.08,4.55 -7.66,4.42 -4.08,-4.55 z m -8.52,4.92 4.08,4.55 -7.64,4.41 -4.08,-4.55 z m -8.5,4.91 4.08,4.55 -7.63,4.41 -4.08,-4.55 z m -8.49,4.9 4.08,4.55 -7.64,4.41 -4.08,-4.55 z m -17.02,9.83 4.08,4.55 -7.64,4.41 -4.08,-4.55 z m -16.14,9.32 7.63,-4.41 4.08,4.55 -7.63,4.41 z m 4.78,5.33 7.63,-4.41 4.09,4.57 -7.63,4.41 z m 4.79,5.35 7.63,-4.41 4.09,4.57 -7.63,4.41 z m 4.79,5.34 7.63,-4.41 4.09,4.57 -7.63,4.41 z m -26.41,-21.52 4.19,4.68 0.86,-0.5 -4.19,-4.68 7.64,-4.41 4.09,4.56 0.86,-0.5 -4.09,-4.56 7.66,-4.42 4.2,4.68 0.86,-0.5 -4.2,-4.68 7.64,-4.41 4.09,4.57 0.86,-0.5 -4.09,-4.57 7.63,-4.41 4.26,4.75 0.86,-0.5 -4.26,-4.76 7.64,-4.41 4.15,4.64 0.86,-0.5 -4.15,-4.64 7.66,-4.42 4.26,4.76 0.86,-0.5 -4.26,-4.76 7.64,-4.41 4.16,4.64 0.86,-0.5 -4.16,-4.64 7.63,-4.41 4.33,4.83 0.86,-0.5 -4.33,-4.83 7.64,-4.41 4.22,4.71 0.86,-0.5 -4.22,-4.71 7.66,-4.42 4.33,4.83 0.86,-0.5 -4.33,-4.84 7.64,-4.41 4.23,4.72 0.86,-0.5 -4.23,-4.72 7.63,-4.41 4.4,4.91 0.86,-0.5 -4.4,-4.91 7.64,-4.41 4.29,4.79 0.86,-0.5 -4.29,-4.79 7.66,-4.42 4.4,4.91 0.86,-0.5 -4.4,-4.91 7.72,-4.46 4.17,4.67 0.81,-0.47 -23.91,-26.76 -8.57,4.95 -0.04,-0.05 -0.84,0.52 0.02,0.02 -7.65,4.48 -0.02,-0.03 -0.36,0.25 -8.11,4.68 -0.01,-0.01 -0.23,0.15 -8.25,4.77 -0.03,-0.03 -0.4,0.28 -8.93,5.16 -7.66,4.42 -0.01,-0.01 -0.31,0.2 -8.18,4.72 -0.02,-0.02 -0.76,0.48 -24.73,14.28 -0.08,-0.08 -0.81,0.56 0.02,0.02 -7.64,4.41 -0.03,-0.03 -0.42,0.29 -8.05,4.65 -0.05,-0.05 -0.82,0.54 0.01,0.01 -7.64,4.41 -0.03,-0.03 -0.32,0.23 -16.67,9.63 -0.03,-0.03 -0.43,0.3 -8.04,4.64 -0.01,-0.02 -0.31,0.2 -8.23,4.75 0.63,0.71 7.67,-4.43 4.08,4.55 -7.64,4.41 0.7,0.78 7.64,-4.41 4.09,4.57 -7.62,4.4 0.7,0.78 7.62,-4.4 4.09,4.57 -7.6,4.39 0.7,0.78 7.6,-4.39 4.09,4.56 -7.58,4.38 0.7,0.78 7.58,-4.38 4.02,4.49 0.88,-0.51 -4.02,-4.49 z m 0.16,-1.27 -4.09,-4.56 7.64,-4.41 4.09,4.57 z m 2.49,-24.59 4.09,4.57 -7.66,4.42 -4.09,-4.57 z m -8.36,3.64 -4.08,-4.55 7.66,-4.42 4.08,4.55 z m 84.89,-47.83 4.09,4.57 -7.64,4.41 -4.09,-4.57 z m -8.34,3.63 -4.08,-4.55 7.64,-4.41 4.08,4.55 z m -62.54,45.41 7.64,-4.41 4.09,4.57 -7.64,4.41 z m 3.23,5.06 -7.66,4.42 -4.09,-4.57 7.66,-4.42 z m 5.27,-9.97 7.63,-4.41 4.09,4.57 -7.63,4.41 z m 8.49,-4.9 7.64,-4.41 4.09,4.56 -7.64,4.41 z m 8.5,-4.91 7.66,-4.42 4.09,4.57 -7.66,4.42 z m 8.52,-4.92 7.64,-4.41 4.09,4.57 -7.64,4.41 z m 8.5,-4.91 7.63,-4.41 4.09,4.57 -7.63,4.41 z m 8.5,-4.91 7.64,-4.41 4.09,4.57 -7.64,4.41 z m 8.5,-4.9 7.66,-4.42 4.09,4.56 -7.66,4.42 z m 8.52,-4.93 7.64,-4.41 4.09,4.57 -7.64,4.41 z m 8.5,-4.9 7.63,-4.41 4.09,4.57 -7.63,4.41 z m 8.49,-4.91 7.64,-4.41 4.09,4.57 -7.64,4.41 z m 8.5,-4.91 7.66,-4.42 4.09,4.57 -7.66,4.42 z m 8.52,-4.92 7.74,-4.47 4.08,4.57 -7.73,4.46 z m -0.7,-0.78 -4.09,-4.57 7.75,-4.47 4.08,4.57 z m -0.86,0.5 -7.66,4.42 -4.09,-4.57 7.66,-4.42 z m -8.52,4.92 -7.64,4.41 -4.09,-4.57 7.64,-4.41 z m -8.5,4.91 -7.63,4.41 -4.09,-4.56 7.63,-4.41 z m -16.99,9.81 -7.66,4.42 -4.09,-4.57 7.66,-4.42 z m -8.52,4.92 -7.64,4.41 -4.09,-4.57 7.64,-4.41 z m -8.5,4.91 -7.63,4.41 -4.09,-4.57 7.63,-4.41 z m -12.42,-0.94 -4.08,-4.55 7.63,-4.41 4.08,4.55 z m -0.86,0.5 -7.64,4.41 -4.08,-4.55 7.64,-4.41 z m 0.7,0.78 4.09,4.57 -7.64,4.41 -4.09,-4.57 z m -4.41,9.47 -7.66,4.42 -4.09,-4.57 7.66,-4.42 z m -8.52,4.92 -7.64,4.41 -4.09,-4.57 7.64,-4.41 z m -8.5,4.91 -7.63,4.41 -4.09,-4.57 7.63,-4.41 z m -8.5,4.91 -7.64,4.41 -4.09,-4.57 7.64,-4.41 z m -17.02,9.83 -7.64,4.41 -4.09,-4.57 7.64,-4.41 z m 0.7,0.78 4.09,4.57 -7.64,4.41 -4.09,-4.57 z m 9.74,9.41 -4.09,-4.56 7.66,-4.42 4.09,4.57 z m 8.52,-4.92 -4.09,-4.56 7.64,-4.41 4.09,4.57 z m 8.5,-4.91 -4.09,-4.56 7.63,-4.41 4.09,4.56 z m 8.49,-4.9 -4.09,-4.56 7.64,-4.41 4.09,4.57 z m 8.5,-4.91 -4.09,-4.57 7.66,-4.42 4.09,4.57 z m 8.52,-4.92 -4.09,-4.56 7.64,-4.41 4.09,4.57 z m 8.5,-4.91 -4.09,-4.57 7.63,-4.41 4.09,4.57 z m 8.5,-4.91 -4.09,-4.57 7.64,-4.41 4.09,4.56 z m 8.5,-4.9 -4.09,-4.57 7.66,-4.42 4.09,4.56 z m 8.52,-4.92 -4.09,-4.57 7.64,-4.41 4.09,4.56 z m 8.5,-4.91 -4.09,-4.57 7.63,-4.41 4.09,4.56 z m 8.49,-4.91 -4.09,-4.56 7.64,-4.41 4.09,4.57 z m 8.5,-4.91 -4.09,-4.56 7.66,-4.42 4.09,4.57 z m 8.52,-4.92 -4.09,-4.57 7.73,-4.46 4.08,4.57 z m -10.69,-25.06 4.07,4.55 -7.75,4.47 -4.08,-4.55 z m -8.61,4.97 4.08,4.55 -7.66,4.42 -4.08,-4.55 z m -8.52,4.92 4.08,4.55 -7.64,4.41 -4.08,-4.55 z m -8.5,4.91 4.08,4.55 -7.63,4.41 -4.08,-4.55 z m -17,9.81 4.08,4.55 -7.66,4.42 -4.08,-4.55 z m -8.52,4.93 4.08,4.55 -7.64,4.41 -4.08,-4.55 z m -25.49,14.72 4.08,4.55 -7.66,4.42 -4.08,-4.55 z m -8.52,4.92 4.08,4.55 -7.64,4.41 -4.08,-4.55 z m -8.5,4.91 4.08,4.55 -7.63,4.41 -4.08,-4.55 z m -8.49,4.9 4.08,4.55 -7.64,4.41 -4.08,-4.55 z m -17.03,9.83 4.08,4.55 -7.64,4.41 -4.08,-4.55 z m -16.13,9.32 7.63,-4.41 4.08,4.55 -7.63,4.41 z m 4.78,5.33 7.63,-4.41 4.09,4.57 -7.63,4.41 z m 4.79,5.34 7.63,-4.41 4.09,4.57 -7.63,4.41 z m 4.79,5.35 7.63,-4.41 4.09,4.57 -7.63,4.41 z m -26.41,-21.52 4.19,4.68 0.86,-0.5 -4.19,-4.68 7.64,-4.41 4.09,4.56 0.86,-0.5 -4.09,-4.56 7.66,-4.42 4.2,4.68 0.86,-0.5 -4.2,-4.68 7.64,-4.41 4.09,4.56 0.86,-0.5 -4.09,-4.57 7.63,-4.41 4.26,4.75 0.86,-0.5 -4.26,-4.75 7.64,-4.41 4.15,4.64 0.86,-0.5 -4.15,-4.64 7.66,-4.42 4.26,4.76 0.86,-0.5 -4.26,-4.76 7.64,-4.41 4.16,4.64 0.86,-0.5 -4.16,-4.64 7.63,-4.41 4.33,4.83 0.86,-0.5 -4.33,-4.83 7.64,-4.41 4.22,4.71 0.86,-0.5 -4.22,-4.71 7.66,-4.42 4.33,4.83 0.86,-0.5 -4.33,-4.84 7.64,-4.41 4.23,4.72 0.86,-0.5 -4.23,-4.72 7.63,-4.41 4.4,4.91 0.86,-0.5 -4.4,-4.91 7.64,-4.41 4.29,4.79 0.86,-0.5 -4.29,-4.79 7.66,-4.42 4.4,4.91 0.86,-0.5 -4.4,-4.91 7.72,-4.46 4.17,4.67 0.81,-0.47 -23.91,-26.76 -8.57,4.95 -0.04,-0.05 -0.84,0.52 0.02,0.02 -7.66,4.42 -0.02,-0.03 -0.36,0.25 -8.11,4.68 -0.01,-0.01 -0.23,0.15 -8.25,4.77 -0.03,-0.03 -0.4,0.28 -8.93,5.16 -7.66,4.42 -0.01,-0.01 -0.31,0.2 -8.18,4.72 -0.02,-0.02 -0.76,0.48 -24.73,14.28 -0.08,-0.08 -0.81,0.56 0.02,0.02 -7.64,4.41 -0.03,-0.03 -0.42,0.29 -8.05,4.65 -0.05,-0.05 -0.82,0.54 0.01,0.01 -7.64,4.41 -0.03,-0.03 -0.32,0.23 -16.67,9.63 -0.03,-0.03 -0.43,0.3 -8.04,4.64 -0.01,-0.02 -0.31,0.2 -8.23,4.75 0.63,0.71 7.67,-4.43 4.08,4.55 -7.64,4.41 0.7,0.78 7.64,-4.41 4.09,4.57 -7.62,4.4 0.7,0.78 7.62,-4.4 4.09,4.57 -7.6,4.39 0.7,0.78 7.6,-4.39 4.09,4.56 -7.58,4.38 0.7,0.78 7.58,-4.38 4.02,4.49 0.88,-0.51 -4.02,-4.49 z m 0.16,-1.28 -4.09,-4.56 7.64,-4.41 4.09,4.57 z m 2.49,-24.58 4.09,4.57 -7.66,4.42 -4.09,-4.57 z m -8.36,3.64 -4.08,-4.55 7.66,-4.42 4.08,4.55 z m 84.89,-47.84 4.09,4.57 -7.64,4.41 -4.09,-4.57 z m -8.34,3.64 -4.08,-4.55 7.64,-4.41 4.08,4.55 z m -62.54,45.4 7.64,-4.41 4.09,4.57 -7.64,4.41 z m 3.23,5.07 -7.66,4.42 -4.09,-4.57 7.66,-4.42 z m 5.27,-9.97 7.63,-4.41 4.09,4.57 -7.63,4.41 z m 8.49,-4.91 7.64,-4.41 4.09,4.56 -7.64,4.41 z m 8.5,-4.91 7.66,-4.42 4.09,4.57 -7.66,4.42 z m 8.52,-4.92 7.64,-4.41 4.09,4.57 -7.64,4.41 z m 8.5,-4.91 7.63,-4.41 4.09,4.57 -7.63,4.41 z m 8.49,-4.9 7.64,-4.41 4.09,4.57 -7.64,4.41 z m 8.5,-4.91 7.66,-4.42 4.09,4.56 -7.66,4.42 z m 8.53,-4.92 7.64,-4.41 4.09,4.57 -7.64,4.41 z m 8.49,-4.91 7.63,-4.41 4.09,4.57 -7.63,4.41 z m 8.5,-4.9 7.64,-4.41 4.09,4.57 -7.64,4.41 z m 8.5,-4.91 7.66,-4.42 4.09,4.57 -7.66,4.42 z m 8.52,-4.92 7.74,-4.47 4.08,4.57 -7.73,4.46 z m -0.7,-0.78 -4.09,-4.57 7.75,-4.47 4.08,4.57 z m -0.86,0.5 -7.66,4.42 -4.09,-4.57 7.66,-4.42 z m -8.52,4.92 -7.64,4.41 -4.09,-4.57 7.64,-4.41 z m -8.5,4.91 -7.63,4.41 -4.09,-4.56 7.63,-4.41 z m -16.99,9.81 -7.66,4.42 -4.09,-4.57 7.66,-4.42 z m -8.52,4.92 -7.64,4.41 -4.09,-4.57 7.64,-4.41 z m -8.5,4.91 -7.63,4.41 -4.09,-4.57 7.63,-4.41 z m -12.43,-0.94 -4.08,-4.55 7.63,-4.41 4.08,4.55 z m -0.86,0.49 -7.64,4.41 -4.08,-4.55 7.64,-4.41 z m 0.7,0.79 4.09,4.57 -7.64,4.41 -4.09,-4.57 z m -4.41,9.47 -7.66,4.42 -4.09,-4.57 7.66,-4.42 z m -8.52,4.92 -7.64,4.41 -4.09,-4.57 7.64,-4.41 z m -8.5,4.91 -7.63,4.41 -4.09,-4.57 7.63,-4.41 z m -8.49,4.9 -7.64,4.41 -4.09,-4.57 7.64,-4.41 z m -17.02,9.83 -7.64,4.41 -4.09,-4.57 7.64,-4.41 z m 0.7,0.78 4.09,4.57 -7.64,4.41 -4.09,-4.57 z m 9.74,9.42 -4.09,-4.57 7.66,-4.42 4.09,4.57 z m 8.52,-4.92 -4.09,-4.56 7.64,-4.41 4.09,4.57 z m 8.5,-4.91 -4.09,-4.56 7.63,-4.41 4.09,4.56 z m 8.49,-4.91 -4.09,-4.56 7.64,-4.41 4.09,4.57 z m 8.5,-4.91 -4.09,-4.57 7.66,-4.42 4.09,4.57 z m 8.52,-4.92 -4.09,-4.56 7.64,-4.41 4.09,4.57 z m 8.5,-4.9 -4.09,-4.57 7.63,-4.41 4.09,4.57 z m 8.49,-4.91 -4.09,-4.57 7.64,-4.41 4.09,4.56 z m 8.5,-4.91 -4.09,-4.57 7.66,-4.42 4.09,4.57 z m 8.52,-4.92 -4.09,-4.57 7.64,-4.41 4.09,4.56 z m 8.5,-4.91 -4.09,-4.57 7.63,-4.41 4.09,4.56 z m 8.5,-4.9 -4.09,-4.56 7.64,-4.41 4.09,4.57 z m 8.5,-4.91 -4.09,-4.57 7.66,-4.42 4.09,4.57 z m 8.52,-4.92 -4.09,-4.57 7.73,-4.46 4.08,4.57 z m -10.69,-25.06 4.07,4.55 -7.75,4.47 -4.08,-4.55 z m -8.62,4.97 4.08,4.55 -7.66,4.42 -4.08,-4.55 z m -8.52,4.92 4.08,4.55 -7.64,4.41 -4.08,-4.55 z m -8.5,4.91 4.08,4.55 -7.63,4.41 -4.08,-4.55 z m -16.99,9.81 4.08,4.55 -7.66,4.42 -4.08,-4.55 z m -8.52,4.92 4.08,4.55 -7.64,4.41 -4.08,-4.55 z m -25.49,14.72 4.08,4.55 -7.66,4.42 -4.08,-4.55 z m -8.52,4.92 4.08,4.55 -7.64,4.41 -4.08,-4.55 z m -8.5,4.91 4.08,4.55 -7.63,4.41 -4.08,-4.55 z m -8.5,4.91 4.08,4.55 -7.64,4.41 -4.08,-4.55 z m -17.02,9.83 4.08,4.55 -7.64,4.41 -4.08,-4.55 z m -16.13,9.31 7.63,-4.41 4.08,4.55 -7.63,4.41 z m 4.77,5.33 7.63,-4.41 4.09,4.57 -7.63,4.41 z m 4.79,5.35 7.63,-4.41 4.09,4.57 -7.63,4.41 z m 4.79,5.35 7.63,-4.41 4.09,4.57 -7.63,4.41 z"
           id="path80598" />
        <path
           fill="#ecf6fd"
           d="m 210.35,127.42 0.86,-0.5 -0.05,-0.05 16.16,-9.33 0.05,0.06 0.86,-0.5 -0.05,-0.06 8.26,-4.77 -24.26,-27.15 -145.2,83.85 24.26,27.15 119.06,-68.75 z m -115.59,42.35 7.64,-4.41 4.09,4.57 -7.64,4.41 z m 3.23,5.06 -7.63,4.41 -4.09,-4.57 7.63,-4.41 z m 97.25,-64.27 -7.63,4.41 -4.09,-4.57 7.63,-4.41 z m -3.23,-5.06 7.64,-4.41 4.09,4.57 -7.64,4.41 z m -5.26,9.96 -7.64,4.41 -4.09,-4.56 7.64,-4.41 z m -8.5,4.91 -7.66,4.42 -4.09,-4.57 7.66,-4.42 z m -8.52,4.92 -7.64,4.41 -4.09,-4.57 7.64,-4.41 z m -57.95,34.65 7.64,-4.41 4.09,4.57 -7.64,4.41 z m 3.23,5.06 -7.66,4.43 -4.09,-4.57 7.66,-4.42 z m 5.27,-9.97 7.63,-4.41 4.09,4.57 -7.63,4.41 z m 8.49,-4.9 7.64,-4.41 4.09,4.57 -7.64,4.41 z m 8.5,-4.91 7.66,-4.42 4.09,4.57 -7.66,4.42 z m 8.52,-4.92 7.64,-4.41 4.09,4.57 -7.64,4.41 z m 8.5,-4.91 7.63,-4.41 4.09,4.57 -7.63,4.41 z m 8.49,-4.9 7.64,-4.41 4.09,4.57 -7.64,4.41 z m -1.55,-0.29 -7.63,4.41 -4.09,-4.57 7.63,-4.41 z m -8.5,4.91 -7.64,4.41 -4.09,-4.57 7.64,-4.41 z m -8.5,4.9 -7.66,4.42 -4.09,-4.57 7.66,-4.42 z m -8.52,4.93 -7.64,4.41 -4.09,-4.56 7.64,-4.41 z m -8.5,4.9 -7.63,4.41 -4.09,-4.57 7.63,-4.41 z m -8.49,4.91 -7.64,4.41 -4.09,-4.56 7.64,-4.41 z m -8.5,4.91 -7.66,4.43 -4.09,-4.57 7.66,-4.42 z m -8.52,4.92 -7.64,4.41 -4.09,-4.57 7.64,-4.41 z m 5.49,6.12 4.09,4.56 -7.64,4.41 -4.09,-4.57 z m 0.86,-0.49 7.66,-4.43 4.09,4.57 -7.66,4.42 z m 8.52,-4.92 7.64,-4.41 4.09,4.57 -7.64,4.41 z m 8.5,-4.91 7.63,-4.41 4.09,4.57 -7.63,4.41 z m 8.49,-4.91 7.64,-4.41 4.09,4.57 -7.64,4.41 z m 8.5,-4.9 7.66,-4.42 4.09,4.57 -7.66,4.42 z m 8.52,-4.93 7.64,-4.41 4.09,4.56 -7.64,4.41 z m 8.5,-4.9 7.63,-4.41 4.09,4.57 -7.63,4.41 z m 8.49,-4.91 7.64,-4.41 4.09,4.56 -7.64,4.41 z m 8.5,-4.91 7.66,-4.42 4.09,4.56 -7.66,4.42 z m -0.7,-0.78 -4.09,-4.57 7.66,-4.42 4.09,4.57 z m 4.43,-9.48 7.64,-4.41 4.09,4.57 -7.64,4.41 z m 8.5,-4.91 7.63,-4.41 4.09,4.57 -7.63,4.41 z m 8.5,-4.91 7.64,-4.41 4.09,4.57 -7.64,4.41 z m 8.5,-4.9 7.66,-4.42 4.09,4.57 -7.66,4.42 z m 12.45,0.92 4.09,4.56 -7.66,4.42 -4.09,-4.56 z m 0.86,-0.5 7.73,-4.46 4.08,4.57 -7.72,4.46 z m -0.7,-0.78 -4.09,-4.57 7.74,-4.47 4.08,4.57 z m -4.79,-5.34 -4.09,-4.57 7.75,-4.47 4.08,4.57 z m -0.86,0.49 -7.66,4.42 -4.09,-4.57 7.66,-4.42 z m -12.45,-0.92 -4.08,-4.55 7.66,-4.42 4.08,4.55 z m -0.86,0.5 -7.64,4.41 -4.08,-4.55 7.64,-4.41 z m -8.5,4.9 -7.63,4.41 -4.08,-4.55 7.63,-4.41 z m -8.49,4.91 -7.64,4.41 -4.08,-4.55 7.64,-4.41 z m -8.5,4.91 -7.66,4.42 -4.08,-4.55 7.66,-4.42 z m -8.52,4.92 -7.64,4.41 -4.08,-4.55 7.64,-4.41 z m -8.5,4.91 -7.63,4.41 -4.08,-4.55 7.63,-4.41 z m -8.5,4.9 -7.64,4.41 -4.08,-4.55 7.64,-4.41 z m -8.5,4.91 -7.66,4.42 -4.08,-4.55 7.66,-4.42 z m -8.52,4.92 -7.64,4.41 -4.08,-4.55 7.64,-4.41 z m -8.5,4.91 -7.63,4.41 -4.08,-4.55 7.63,-4.41 z m -8.49,4.9 -7.64,4.41 -4.08,-4.55 7.64,-4.41 z m -8.5,4.91 -7.66,4.42 -4.08,-4.55 7.66,-4.42 z m -8.52,4.92 -7.64,4.41 -4.08,-4.55 7.64,-4.41 z m -8.5,4.91 -7.63,4.41 -4.08,-4.55 7.63,-4.41 z m 0.7,0.78 4.09,4.57 -7.63,4.41 -4.09,-4.57 z m -4.42,9.48 -7.93,4.58 -4.08,-4.57 7.93,-4.58 z m 0.7,0.78 4.09,4.57 -7.94,4.59 -4.08,-4.57 z m 4.79,5.35 4.09,4.57 -7.95,4.59 -4.08,-4.57 z m 0.87,-0.51 7.63,-4.41 4.09,4.57 -7.63,4.41 z m 12.43,0.94 4.41,4.92 -7.63,4.41 -4.41,-4.92 z m 0.86,-0.5 7.64,-4.41 4.41,4.92 -7.64,4.41 z m 8.49,-4.91 7.66,-4.42 4.41,4.92 -7.66,4.43 z m 8.53,-4.92 7.64,-4.41 4.41,4.92 -7.64,4.41 z m 8.5,-4.91 7.63,-4.41 4.41,4.92 -7.63,4.41 z m 8.49,-4.9 7.64,-4.41 4.41,4.92 -7.64,4.41 z m 8.5,-4.91 7.66,-4.42 4.41,4.92 -7.66,4.42 z m 8.52,-4.92 7.64,-4.41 4.41,4.92 -7.64,4.41 z m 8.5,-4.91 7.63,-4.41 4.41,4.92 -7.63,4.41 z m 8.49,-4.9 7.64,-4.41 4.41,4.92 -7.64,4.41 z m 8.5,-4.91 7.66,-4.43 4.41,4.92 -7.66,4.42 z m 8.52,-4.92 7.64,-4.41 4.41,4.92 -7.64,4.41 z m -0.7,-0.78 -4.09,-4.56 7.64,-4.41 4.09,4.57 z m 4.41,-9.48 7.63,-4.41 4.09,4.56 -7.63,4.41 z m 8.5,-4.9 7.64,-4.41 4.09,4.56 -7.64,4.41 z m 12.43,0.93 4.41,4.92 -7.64,4.41 -4.41,-4.92 z m 5.26,4.42 -4.41,-4.92 7.66,-4.42 4.41,4.92 z m 8.52,-4.92 -4.41,-4.92 7.72,-4.46 4.4,4.92 z m -11.72,-26.2 -7.75,4.47 -4.08,-4.55 7.75,-4.48 z m -140.26,74.08 4.08,4.55 -7.92,4.58 -4.07,-4.55 z m 11.2,25.96 7.95,-4.59 4.41,4.92 -7.96,4.6 z m 115.27,-59.1 -4.41,-4.92 7.63,-4.41 4.41,4.92 z m 46.89,18.52 0.86,-0.5 -0.05,-0.05 16.16,-9.33 0.05,0.06 0.86,-0.5 -0.05,-0.06 8.26,-4.77 -24.26,-27.15 -145.21,83.85 24.26,27.15 119.06,-68.75 z m -115.59,42.34 7.64,-4.41 4.09,4.57 -7.64,4.41 z m 3.23,5.07 -7.63,4.41 -4.09,-4.57 7.63,-4.41 z m 97.25,-64.28 -7.63,4.41 -4.09,-4.57 7.63,-4.41 z m -3.23,-5.06 7.64,-4.41 4.09,4.57 -7.64,4.41 z m -5.26,9.97 -7.64,4.41 -4.09,-4.57 7.64,-4.41 z m -8.5,4.91 -7.66,4.42 -4.09,-4.57 7.66,-4.42 z m -8.52,4.92 -7.64,4.41 -4.09,-4.57 7.64,-4.41 z m -57.95,34.64 7.64,-4.41 4.09,4.57 -7.64,4.41 z m 3.23,5.07 -7.66,4.43 -4.09,-4.57 7.66,-4.42 z m 5.27,-9.97 7.63,-4.41 4.09,4.57 -7.63,4.41 z m 8.49,-4.91 7.64,-4.41 4.09,4.57 -7.64,4.41 z m 8.5,-4.91 7.66,-4.42 4.09,4.57 -7.66,4.42 z m 8.52,-4.92 7.64,-4.41 4.09,4.57 -7.64,4.41 z m 8.5,-4.91 7.63,-4.41 4.09,4.57 -7.63,4.41 z m 8.5,-4.9 7.64,-4.41 4.09,4.57 -7.64,4.41 z m -1.56,-0.28 -7.63,4.41 -4.09,-4.57 7.63,-4.41 z m -8.49,4.9 -7.64,4.41 -4.09,-4.57 7.64,-4.41 z m -8.5,4.91 -7.66,4.42 -4.09,-4.57 7.66,-4.42 z m -8.53,4.92 -7.64,4.41 -4.09,-4.57 7.64,-4.41 z m -8.49,4.91 -7.63,4.41 -4.09,-4.57 7.63,-4.41 z m -8.5,4.9 -7.64,4.41 -4.09,-4.56 7.64,-4.41 z m -8.5,4.91 -7.66,4.43 -4.09,-4.57 7.66,-4.42 z m -8.52,4.92 -7.64,4.41 -4.09,-4.57 7.64,-4.41 z m 5.49,6.13 4.09,4.56 -7.64,4.41 -4.09,-4.57 z m 0.86,-0.5 7.66,-4.43 4.09,4.57 -7.66,4.42 z m 8.52,-4.92 7.64,-4.41 4.09,4.57 -7.64,4.41 z m 8.5,-4.91 7.63,-4.41 4.09,4.57 -7.63,4.41 z m 8.49,-4.9 7.64,-4.41 4.09,4.57 -7.64,4.41 z m 8.5,-4.91 7.66,-4.42 4.09,4.57 -7.66,4.42 z m 8.52,-4.92 7.64,-4.41 4.09,4.57 -7.64,4.41 z m 8.5,-4.91 7.63,-4.41 4.09,4.57 -7.63,4.41 z m 8.5,-4.9 7.64,-4.41 4.09,4.57 -7.64,4.41 z m 8.5,-4.91 7.66,-4.42 4.09,4.57 -7.66,4.42 z m -0.7,-0.78 -4.09,-4.57 7.66,-4.42 4.09,4.57 z m 4.43,-9.49 7.64,-4.41 4.09,4.57 -7.64,4.41 z m 8.5,-4.91 7.63,-4.41 4.09,4.57 -7.63,4.41 z m 8.49,-4.9 7.64,-4.41 4.09,4.57 -7.64,4.41 z m 8.5,-4.91 7.66,-4.42 4.09,4.57 -7.66,4.42 z m 12.45,0.92 4.09,4.56 -7.66,4.42 -4.09,-4.56 z m 0.86,-0.5 7.73,-4.46 4.08,4.57 -7.72,4.46 z m -0.7,-0.78 -4.09,-4.57 7.74,-4.47 4.08,4.57 z m -4.79,-5.34 -4.09,-4.57 7.75,-4.47 4.08,4.57 z m -0.86,0.49 -7.66,4.42 -4.09,-4.57 7.66,-4.42 z m -12.45,-0.92 -4.08,-4.55 7.66,-4.42 4.08,4.55 z m -0.86,0.5 -7.64,4.41 -4.08,-4.55 7.64,-4.41 z m -8.5,4.91 -7.63,4.41 -4.08,-4.55 7.63,-4.41 z m -8.49,4.9 -7.64,4.41 -4.08,-4.55 7.64,-4.41 z m -8.5,4.91 -7.66,4.42 -4.08,-4.55 7.66,-4.42 z m -8.52,4.92 -7.64,4.41 -4.08,-4.55 7.64,-4.41 z m -8.5,4.91 -7.63,4.41 -4.08,-4.55 7.63,-4.41 z m -8.49,4.9 -7.64,4.41 -4.08,-4.55 7.64,-4.41 z m -8.5,4.91 -7.66,4.42 -4.08,-4.55 7.66,-4.42 z m -8.52,4.92 -7.64,4.41 -4.08,-4.55 7.64,-4.41 z m -8.5,4.91 -7.63,4.41 -4.08,-4.55 7.63,-4.41 z m -8.5,4.91 -7.64,4.41 -4.08,-4.55 7.64,-4.41 z m -8.5,4.9 -7.66,4.42 -4.08,-4.55 7.66,-4.42 z m -8.52,4.93 -7.64,4.41 -4.08,-4.55 7.64,-4.41 z m -8.5,4.9 -7.63,4.41 -4.08,-4.55 7.63,-4.41 z m 0.7,0.78 4.09,4.57 -7.63,4.41 -4.09,-4.57 z m -4.42,9.48 -7.93,4.58 -4.08,-4.57 7.93,-4.58 z m 0.7,0.78 4.09,4.57 -7.94,4.59 -4.08,-4.57 z m 4.79,5.35 4.09,4.57 -7.95,4.59 -4.08,-4.57 z m 0.88,-0.51 7.63,-4.41 4.09,4.56 -7.63,4.41 z m 12.42,0.94 4.41,4.92 -7.63,4.41 -4.41,-4.92 z m 0.86,-0.5 7.64,-4.41 4.41,4.92 -7.64,4.41 z m 8.5,-4.9 7.66,-4.42 4.41,4.92 -7.66,4.42 z m 8.52,-4.93 7.64,-4.41 4.41,4.92 -7.64,4.41 z m 8.5,-4.9 7.63,-4.41 4.41,4.92 -7.63,4.41 z m 8.49,-4.91 7.64,-4.41 4.41,4.92 -7.64,4.41 z m 8.5,-4.91 7.66,-4.42 4.41,4.92 -7.66,4.43 z m 8.52,-4.92 7.64,-4.41 4.41,4.92 -7.64,4.41 z m 8.5,-4.9 7.63,-4.41 4.41,4.92 -7.63,4.41 z m 8.5,-4.91 7.64,-4.41 4.41,4.92 -7.64,4.41 z m 8.5,-4.91 7.66,-4.42 4.41,4.92 -7.66,4.43 z m 8.52,-4.92 7.64,-4.41 4.41,4.92 -7.64,4.41 z m -0.7,-0.78 -4.09,-4.57 7.64,-4.41 4.09,4.57 z m 4.41,-9.47 7.63,-4.41 4.09,4.57 -7.63,4.41 z m 8.49,-4.91 7.64,-4.41 4.09,4.57 -7.64,4.41 z m 12.43,0.94 4.41,4.92 -7.64,4.41 -4.41,-4.92 z m 5.26,4.42 -4.41,-4.92 7.66,-4.42 4.41,4.92 z m 8.53,-4.92 -4.41,-4.92 7.72,-4.46 4.4,4.92 z m -11.73,-26.21 -7.75,4.47 -4.08,-4.55 7.75,-4.48 z m -140.25,74.09 4.08,4.55 -7.92,4.58 -4.07,-4.55 z m 11.19,25.96 7.95,-4.59 4.41,4.92 -7.96,4.6 z m 115.27,-59.11 -4.41,-4.92 7.63,-4.41 4.41,4.92 z m -69.61,-48.84 0.86,-0.5 -0.05,-0.05 16.16,-9.33 0.05,0.06 0.86,-0.5 -0.05,-0.06 8.26,-4.77 -24.26,-27.15 -145.19,83.85 24.26,27.15 119.06,-68.75 z m -115.59,42.35 7.64,-4.41 4.09,4.57 -7.64,4.41 z m 3.24,5.06 -7.63,4.41 -4.09,-4.57 7.63,-4.41 z m 97.25,-64.27 -7.63,4.41 -4.09,-4.57 7.63,-4.41 z m -3.23,-5.06 7.64,-4.41 4.09,4.57 -7.64,4.41 z m -5.27,9.96 -7.64,4.41 -4.09,-4.56 7.64,-4.41 z m -8.5,4.91 -7.66,4.42 -4.09,-4.57 7.66,-4.42 z m -8.52,4.92 -7.64,4.41 -4.09,-4.57 7.64,-4.41 z m -57.95,34.65 7.64,-4.41 4.09,4.57 -7.64,4.41 z m 3.24,5.06 -7.66,4.43 -4.09,-4.57 7.66,-4.42 z m 5.26,-9.97 7.63,-4.41 4.09,4.57 -7.63,4.41 z m 8.5,-4.91 7.64,-4.41 4.09,4.57 -7.64,4.41 z m 8.5,-4.9 7.66,-4.42 4.09,4.57 -7.66,4.42 z m 8.52,-4.92 7.64,-4.41 4.09,4.57 -7.64,4.41 z m 8.5,-4.91 7.63,-4.41 4.09,4.57 -7.63,4.41 z m 8.49,-4.91 7.64,-4.41 4.09,4.57 -7.64,4.41 z m -1.56,-0.28 -7.63,4.41 -4.09,-4.57 7.63,-4.41 z m -8.49,4.9 -7.64,4.41 -4.09,-4.57 7.64,-4.41 z m -8.5,4.91 -7.66,4.42 -4.09,-4.57 7.66,-4.42 z m -8.52,4.92 -7.64,4.41 -4.09,-4.56 7.64,-4.41 z m -8.5,4.91 -7.63,4.41 -4.09,-4.57 7.63,-4.41 z m -8.49,4.9 -7.64,4.41 -4.09,-4.56 7.64,-4.41 z m -8.5,4.91 -7.66,4.43 -4.09,-4.57 7.66,-4.42 z m -8.52,4.93 -7.64,4.41 -4.09,-4.57 7.64,-4.41 z m 5.48,6.12 4.09,4.56 -7.64,4.41 -4.09,-4.57 z m 0.86,-0.5 7.66,-4.43 4.09,4.57 -7.66,4.42 z m 8.52,-4.92 7.64,-4.41 4.09,4.57 -7.64,4.41 z m 8.5,-4.9 7.63,-4.41 4.09,4.57 -7.63,4.41 z m 8.5,-4.91 7.64,-4.41 4.09,4.57 -7.64,4.41 z m 8.5,-4.91 7.66,-4.42 4.09,4.57 -7.66,4.42 z m 8.52,-4.92 7.64,-4.41 4.09,4.57 -7.64,4.41 z m 8.5,-4.91 7.63,-4.41 4.09,4.57 -7.63,4.41 z m 8.49,-4.9 7.64,-4.41 4.09,4.56 -7.64,4.41 z m 8.5,-4.91 7.66,-4.42 4.09,4.56 -7.66,4.43 z m -0.7,-0.78 -4.09,-4.57 7.66,-4.42 4.09,4.57 z m 4.43,-9.49 7.64,-4.41 4.09,4.57 -7.64,4.41 z m 8.5,-4.9 7.63,-4.41 4.09,4.57 -7.63,4.41 z m 8.49,-4.91 7.64,-4.41 4.09,4.57 -7.64,4.41 z m 8.5,-4.91 7.66,-4.42 4.09,4.57 -7.66,4.42 z m 12.46,0.92 4.09,4.56 -7.66,4.42 -4.09,-4.56 z m 0.85,-0.49 7.73,-4.46 4.08,4.57 -7.72,4.46 z m -0.69,-0.78 -4.09,-4.57 7.74,-4.47 4.08,4.57 z m -4.79,-5.35 -4.09,-4.57 7.75,-4.47 4.08,4.57 z m -0.86,0.5 -7.66,4.42 -4.09,-4.57 7.66,-4.42 z m -12.45,-0.92 -4.08,-4.55 7.66,-4.42 4.08,4.55 z m -0.86,0.49 -7.64,4.41 -4.08,-4.55 7.64,-4.41 z m -8.5,4.91 -7.63,4.41 -4.08,-4.55 7.63,-4.41 z m -8.5,4.91 -7.64,4.41 -4.08,-4.55 7.64,-4.41 z m -8.49,4.9 -7.67,4.43 -4.08,-4.55 7.66,-4.42 z m -8.53,4.93 -7.64,4.41 -4.08,-4.55 7.64,-4.41 z m -8.5,4.9 -7.63,4.41 -4.08,-4.55 7.63,-4.41 z m -8.49,4.91 -7.64,4.41 -4.08,-4.55 7.64,-4.41 z m -8.5,4.91 -7.66,4.42 -4.08,-4.55 7.66,-4.42 z m -8.52,4.92 -7.64,4.41 -4.08,-4.55 7.64,-4.41 z m -8.5,4.9 -7.63,4.41 -4.08,-4.55 7.63,-4.41 z m -8.49,4.91 -7.64,4.41 -4.08,-4.55 7.64,-4.41 z m -8.5,4.91 -7.66,4.42 -4.08,-4.55 7.66,-4.42 z m -8.52,4.92 -7.64,4.41 -4.08,-4.55 7.64,-4.41 z m -8.5,4.91 -7.63,4.41 -4.08,-4.55 7.63,-4.41 z m 0.7,0.78 4.09,4.57 -7.63,4.41 -4.09,-4.57 z m -4.42,9.48 -7.93,4.58 -4.08,-4.57 7.93,-4.58 z m 0.69,0.78 4.09,4.57 -7.94,4.59 -4.08,-4.57 z m 4.79,5.34 4.09,4.57 -7.95,4.59 -4.08,-4.57 z m 0.88,-0.5 7.63,-4.41 4.09,4.57 -7.63,4.41 z m 12.42,0.93 4.41,4.92 -7.63,4.41 -4.41,-4.92 z m 0.86,-0.49 7.64,-4.41 4.41,4.92 -7.64,4.41 z m 8.5,-4.91 7.66,-4.42 4.41,4.92 -7.66,4.43 z m 8.52,-4.92 7.64,-4.41 4.41,4.92 -7.64,4.41 z m 8.5,-4.91 7.63,-4.41 4.41,4.92 -7.63,4.41 z m 8.5,-4.9 7.64,-4.41 4.41,4.92 -7.64,4.41 z m 8.5,-4.91 7.66,-4.42 4.41,4.92 -7.66,4.42 z m 8.52,-4.92 7.64,-4.41 4.41,4.92 -7.64,4.41 z m 8.5,-4.91 7.63,-4.41 4.41,4.92 -7.63,4.41 z m 8.49,-4.91 7.64,-4.41 4.41,4.92 -7.64,4.41 z m 8.5,-4.9 7.66,-4.43 4.41,4.92 -7.66,4.42 z m 8.52,-4.93 7.64,-4.41 4.41,4.92 -7.64,4.41 z m -0.7,-0.78 -4.09,-4.56 7.64,-4.41 4.09,4.57 z m 4.41,-9.47 7.63,-4.41 4.09,4.56 -7.63,4.41 z m 8.49,-4.9 7.64,-4.41 4.09,4.56 -7.64,4.41 z m 12.43,0.93 4.41,4.92 -7.64,4.41 -4.41,-4.92 z m 5.27,4.42 -4.41,-4.92 7.66,-4.42 4.41,4.92 z m 8.52,-4.92 -4.41,-4.92 7.72,-4.46 4.4,4.92 z m -11.73,-26.21 -7.75,4.47 -4.08,-4.55 7.75,-4.48 z m -140.25,74.09 4.08,4.55 -7.92,4.58 -4.07,-4.55 z m 11.19,25.96 7.95,-4.59 4.41,4.92 -7.96,4.6 z m 115.28,-59.11 -4.41,-4.92 7.63,-4.41 4.41,4.92 z m 150.65,48.28 -24.26,-27.15 -145.21,83.85 24.26,27.15 119.06,-68.75 0.05,0.05 0.86,-0.5 -0.05,-0.05 16.16,-9.33 0.05,0.06 0.86,-0.5 -0.05,-0.06 z m -8.64,4.35 -4.41,-4.92 7.72,-4.46 4.4,4.92 z m -133.05,53.15 7.64,-4.41 4.09,4.57 -7.64,4.41 z m 3.23,5.06 -7.63,4.41 -4.09,-4.57 7.63,-4.41 z m 97.26,-64.27 -7.63,4.41 -4.09,-4.57 7.63,-4.41 z m -3.24,-5.06 7.64,-4.41 4.09,4.57 -7.64,4.41 z m -5.26,9.96 -7.64,4.41 -4.09,-4.56 7.64,-4.41 z m -8.5,4.91 -7.66,4.42 -4.09,-4.57 7.66,-4.42 z m -8.52,4.92 -7.64,4.41 -4.09,-4.57 7.64,-4.41 z m -57.95,34.65 7.64,-4.41 4.09,4.57 -7.64,4.41 z m 3.24,5.06 -7.66,4.43 -4.09,-4.57 7.66,-4.42 z m 5.26,-9.97 7.63,-4.41 4.09,4.57 -7.63,4.41 z m 8.5,-4.91 7.64,-4.41 4.09,4.57 -7.64,4.41 z m 8.5,-4.9 7.66,-4.42 4.09,4.57 -7.66,4.42 z m 8.52,-4.92 7.64,-4.41 4.09,4.57 -7.64,4.41 z m 8.5,-4.91 7.63,-4.41 4.09,4.57 -7.63,4.41 z m 8.49,-4.91 7.64,-4.41 4.09,4.57 -7.64,4.41 z m -1.56,-0.28 -7.63,4.41 -4.09,-4.57 7.63,-4.41 z m -8.49,4.9 -7.64,4.41 -4.09,-4.57 7.64,-4.41 z m -8.5,4.91 -7.66,4.42 -4.09,-4.56 7.66,-4.43 z m -8.52,4.92 -7.64,4.41 -4.09,-4.57 7.64,-4.41 z m -8.5,4.91 -7.63,4.41 -4.09,-4.57 7.63,-4.41 z m -8.49,4.91 -7.64,4.41 -4.09,-4.56 7.64,-4.41 z m -8.5,4.9 -7.66,4.43 -4.09,-4.57 7.66,-4.42 z m -8.53,4.92 -7.64,4.41 -4.09,-4.57 7.64,-4.41 z m 5.49,6.13 4.09,4.57 -7.64,4.41 -4.09,-4.56 z m 0.86,-0.5 7.66,-4.43 4.09,4.57 -7.66,4.42 z m 8.52,-4.92 7.64,-4.41 4.09,4.56 -7.64,4.41 z m 8.5,-4.9 7.63,-4.41 4.09,4.57 -7.63,4.41 z m 8.5,-4.91 7.64,-4.41 4.09,4.56 -7.64,4.41 z m 8.5,-4.91 7.66,-4.42 4.09,4.56 -7.66,4.43 z m 8.52,-4.92 7.64,-4.41 4.09,4.57 -7.64,4.41 z m 8.5,-4.91 7.63,-4.41 4.09,4.57 -7.63,4.41 z m 8.49,-4.9 7.64,-4.41 4.09,4.57 -7.64,4.41 z m 8.5,-4.91 7.66,-4.42 4.09,4.56 -7.66,4.42 z m -0.7,-0.78 -4.09,-4.57 7.66,-4.42 4.09,4.57 z m 4.43,-9.49 7.64,-4.41 4.09,4.57 -7.64,4.41 z m 8.5,-4.9 7.63,-4.41 4.09,4.57 -7.63,4.41 z m 8.49,-4.91 7.64,-4.41 4.09,4.57 -7.64,4.41 z m 8.5,-4.91 7.66,-4.42 4.09,4.56 -7.66,4.43 z m 8.52,-4.92 7.74,-4.47 4.08,4.57 -7.73,4.46 z m -0.69,-0.78 -4.09,-4.57 7.75,-4.47 4.08,4.57 z m -0.86,0.5 -7.66,4.42 -4.09,-4.57 7.66,-4.42 z m -12.45,-0.92 -4.08,-4.55 7.66,-4.42 4.08,4.55 z m -0.86,0.49 -7.64,4.41 -4.08,-4.55 7.64,-4.41 z m -8.5,4.91 -7.63,4.41 -4.08,-4.55 7.63,-4.41 z m -8.5,4.91 -7.64,4.41 -4.08,-4.55 7.64,-4.41 z m -8.5,4.9 -7.66,4.42 -4.08,-4.55 7.66,-4.42 z m -8.52,4.93 -7.64,4.41 -4.08,-4.55 7.64,-4.41 z m -8.5,4.9 -7.63,4.41 -4.08,-4.55 7.63,-4.41 z m -8.49,4.91 -7.64,4.41 -4.08,-4.55 7.64,-4.41 z m -8.5,4.91 -7.66,4.43 -4.08,-4.55 7.66,-4.43 z m -8.52,4.92 -7.64,4.41 -4.08,-4.55 7.64,-4.41 z m -8.5,4.9 -7.63,4.41 -4.08,-4.55 7.63,-4.41 z m -8.49,4.91 -7.64,4.41 -4.08,-4.55 7.64,-4.41 z m -8.5,4.91 -7.66,4.42 -4.08,-4.55 7.66,-4.42 z m -8.52,4.92 -7.64,4.41 -4.08,-4.55 7.64,-4.41 z m -8.5,4.91 -7.63,4.41 -4.08,-4.55 7.63,-4.41 z m 0.69,0.78 4.09,4.57 -7.63,4.41 -4.09,-4.57 z m -4.42,9.48 -7.93,4.58 -4.08,-4.57 7.93,-4.58 z m 0.7,0.78 4.09,4.57 -7.94,4.58 -4.08,-4.57 z m 4.79,5.34 4.09,4.57 -7.95,4.59 -4.08,-4.57 z m 0.88,-0.5 7.63,-4.41 4.09,4.57 -7.63,4.41 z m 12.42,0.93 4.41,4.92 -7.63,4.41 -4.41,-4.92 z m 0.86,-0.49 7.64,-4.41 4.41,4.92 -7.64,4.41 z m 8.5,-4.91 7.66,-4.42 4.41,4.92 -7.66,4.42 z m 8.52,-4.92 7.64,-4.41 4.41,4.92 -7.64,4.41 z m 8.5,-4.91 7.63,-4.41 4.41,4.92 -7.63,4.41 z m 8.5,-4.9 7.64,-4.41 4.41,4.92 -7.64,4.41 z m 8.49,-4.91 7.66,-4.42 4.41,4.92 -7.66,4.43 z m 8.53,-4.92 7.64,-4.41 4.41,4.92 -7.64,4.41 z m 8.5,-4.91 7.63,-4.41 4.41,4.92 -7.63,4.41 z m 8.49,-4.91 7.64,-4.41 4.41,4.92 -7.64,4.41 z m 8.5,-4.9 7.66,-4.43 4.41,4.92 -7.66,4.42 z m 8.52,-4.93 7.64,-4.41 4.41,4.92 -7.64,4.41 z m -0.7,-0.78 -4.09,-4.56 7.64,-4.41 4.09,4.57 z m 4.41,-9.47 7.63,-4.41 4.09,4.56 -7.63,4.41 z m 8.49,-4.9 7.64,-4.41 4.09,4.56 -7.64,4.41 z m 8.5,-4.91 7.66,-4.43 4.09,4.57 -7.66,4.42 z m 8.52,-4.92 7.73,-4.46 4.08,4.57 -7.72,4.46 z m -2.53,-15.95 -7.74,4.48 -4.08,-4.55 7.75,-4.48 z m -140.25,74.09 4.08,4.55 -7.92,4.58 -4.07,-4.55 z m 11.19,25.96 7.95,-4.59 4.41,4.92 -7.96,4.6 z m 115.27,-59.11 -4.41,-4.92 7.63,-4.41 4.41,4.92 z m 4.09,-9.82 7.64,-4.41 4.41,4.92 -7.64,4.41 z m 12.91,0.01 -4.41,-4.92 7.66,-4.42 4.41,4.92 z"
           id="path80600" />
      </g>
    </g>
  </g>
</svg>
